<svg id="Calque_1" data-name="Calque 1" xmlns="http://www.w3.org/2000/svg" viewBox="0 0 1366 1024">
  <title>patate</title>
  <path d="M478.66,213.77A132.16,132.16,0,0,1,503,178.38c26-26.46,77.77-60.24,160.78-35.29C791,181.3,913.57,35.39,913.57,35.39s136.32-126.8,206.52,101.33c62,201.39,143.36,244.85,161.59,252.27a136.68,136.68,0,0,1,16.27,7.86l1,.6c75.75,43.84,84.2,163.7,15.39,220.47-26.53,21.89-63.54,42-114.94,53.22C1066.05,700.32,915.21,875.68,874.06,926.2a238.38,238.38,0,0,1-36.21,36c-59.45,47.3-211.1,137.36-322.05-62.36C415.59,726.15,278.25,703,278.25,703S-34.07,688.51,10.69,540.29C48.31,415.74,168.16,382.76,205.49,375.4A502.66,502.66,0,0,0,258.4,362C321.81,342.19,439.27,295.59,478.66,213.77Z"/>
</svg>
